<?xml version="1.0" encoding="UTF-8"?>
<svg width="1200pt" height="1200pt" version="1.1" viewBox="0 0 1200 1200" xmlns="http://www.w3.org/2000/svg">
 <g fill="#fff">
  <path d="m307.5 600c0 81.461-66.039 147.5-147.5 147.5s-147.5-66.039-147.5-147.5 66.039-147.5 147.5-147.5 147.5 66.039 147.5 147.5"/>
  <path d="m747.5 600c0 81.461-66.039 147.5-147.5 147.5s-147.5-66.039-147.5-147.5 66.039-147.5 147.5-147.5 147.5 66.039 147.5 147.5"/>
  <path d="m1187.5 600c0 81.461-66.039 147.5-147.5 147.5s-147.5-66.039-147.5-147.5 66.039-147.5 147.5-147.5 147.5 66.039 147.5 147.5"/>
 </g>
</svg>
