<?xml version="1.0" encoding="UTF-8"?>
<svg width="1200pt" height="1200pt" version="1.1" viewBox="0 0 1200 1200" xmlns="http://www.w3.org/2000/svg">
 <g fill="#fff">
  <path d="m462.51 93.656v-0.39453c-0.26172-10.125-8.5508-18.262-18.75-18.262-10.352 0-18.711 8.3633-18.75 18.695 0 3.168-0.89844 77.551-50.008 77.551h-0.24219c-10.258 0.13281-18.508 8.4766-18.508 18.75 0 10.273 8.25 18.617 18.488 18.75 5.3633 0.20703 50.27 4.4805 50.27 91.258v0.50781c0.28125 10.125 8.5703 18.242 18.75 18.242 10.352 0 18.73-8.3828 18.75-18.711 0-0.91797 0.82422-91.293 49.988-91.293h0.24219c10.258-0.13281 18.508-8.4766 18.508-18.75s-8.2891-18.637-18.543-18.75c-5.2891-0.14844-50.195-3.582-50.195-77.492zm0.61719 96.375c-7.8555 7.2383-14.25 16.145-19.387 25.949-5.9258-10.199-12.77-18.094-19.781-24.168 7.8945-6.582 14.344-14.645 19.52-23.492 5.8516 9.1484 12.656 16.238 19.648 21.711z"/>
  <path d="m1050 581.38v0.42969c0.32031 10.086 8.5859 18.168 18.75 18.168 10.352 0 18.73-8.3828 18.75-18.73 0-1.3125 1.1445-131.27 75-131.27h0.33594c10.199-0.1875 18.414-8.5117 18.414-18.75 0-10.312-8.3047-18.676-18.602-18.75-7.8008-0.14844-75.148-4.5742-75.148-112.5v-0.50781c-0.28125-10.125-8.5703-18.242-18.75-18.242-10.352 0-18.73 8.3633-18.75 18.711 0 4.6133-1.1992 112.54-75 112.54h-0.28125c-10.219 0.14844-18.469 8.4922-18.469 18.75 0 10.258 8.2891 18.656 18.562 18.75 3.4883 0.09375 75.188 3.6758 75.188 131.25zm-19.387-147.86c16.633-11.457 28.836-27.898 37.574-46.012 10.461 20.344 24.207 34.07 37.969 43.312-16.949 13.051-28.801 31.707-37.07 51.488-10.613-23.023-24.582-38.457-38.492-48.805z"/>
  <path d="m900 187.65v0.22656c0.20703 10.18 8.5117 18.375 18.75 18.375 10.352 0 18.73-8.3633 18.75-18.711 0-0.73047 1.2578-71.289 37.5-71.289 10.367 0 18.75-8.3984 18.75-18.75s-8.3828-18.75-18.75-18.75c-1.5391 0-37.5-0.67578-37.5-60 0-10.352-8.3828-18.75-18.75-18.75s-18.75 8.3984-18.75 18.75c0 0.60156-0.41406 60-37.5 60h-0.13281c-10.293 0.054688-18.617 8.4375-18.617 18.75 0 10.238 8.2109 18.582 18.414 18.75 4.1641 0.20703 37.836 3.9375 37.836 71.25zm18.656-101.62c3.3008 4.5391 6.8984 8.4766 10.668 11.852-4.0703 4.2578-7.6328 9.0391-10.742 14.195-3.4141-5.082-7.1055-9.375-10.895-13.012 4.1641-3.8984 7.8008-8.3047 10.969-13.051z"/>
  <path d="m352.8 1115.2c71.477 55.445 156.94 84.75 247.2 84.75 40.18 0 79.762-5.8867 117.6-17.512 170.76-52.051 285.52-207.02 285.52-385.61 0-211.12-163.22-384.54-370.07-401.46v-137.59h17.586v60.918c0 10.352 8.3828 18.75 18.75 18.75h154.24c10.367 0 18.75-8.3984 18.75-18.75v-131.25c0-10.352-8.3828-18.75-18.75-18.75h-36.336v-61.875c0-10.352-8.3828-18.75-18.75-18.75h-117.38c9.2266-9.3555 14.961-22.18 14.961-36.336 0-28.555-23.23-51.805-51.805-51.805s-51.805 23.23-51.805 51.805c0 21.938 13.762 40.613 33.055 48.148v294.02c-220.22 2.418-398.68 182.12-398.68 402.9 0 125.4 56.832 241.43 155.93 318.38zm34.293-21.582c23.98-60.133 81.355-99.918 147.28-99.918 86.852 0 157.59 69.883 159.23 156.36-30.336 8.0625-61.727 12.395-93.602 12.395-77.211 0-150.43-23.926-212.91-68.832zm441.43-11.195c-14.57-18.02-28.668-45.262-28.875-62.195-0.28125-21.883 9.0938-43.914 25.051-58.895 3.3008-3.1133 6.9375-6.1328 10.574-9.1875 16.086-13.461 36.133-30.207 35.605-57.094-0.44922-23.289-16.52-38.605-29.398-50.887-5.0078-4.7617-9.7305-9.2812-13.199-13.742-11.551-14.906-11.98-38.551-0.97656-53.852 8.8867-12.32 23.98-20.344 39.992-28.836 15.02-7.9688 30.523-16.199 43.613-29.008 11.551-11.289 22.426-31.445 29.887-53.25 15.805 40.836 24.805 85.031 24.805 131.36 0 114.39-52.051 217.91-137.1 285.6zm-23.664-876.23v93.75h-116.74v-42.168h80.398c10.367 0 18.75-8.3984 18.75-18.75v-32.832zm-55.086 14.082h-116.74l0.003906-94.703h116.74v94.707zm-135.49-182.83c7.8945 0 14.305 6.4141 14.305 14.305 0 7.8945-6.4141 14.305-14.305 14.305-7.8945 0-14.305-6.4141-14.305-14.305 0-7.8945 6.4141-14.305 14.305-14.305zm-191.81 440.01c1.125 12.695 4.3672 24.805 9.2266 32.605 5.5859 8.9453 12.242 16.219 18.676 23.25 3.4688 3.7891 6.9375 7.5547 10.105 11.57 12.508 15.824 18.656 39.805 7.3125 52.574-7.3516 8.25-21.617 12-44.102 11.25l-7.7422-0.30078c-20.043-0.84375-42.711-1.7617-63.562 8.8125-20.305 10.293-32.926 28.5-44.289 44.906-9.3203 13.461-18.676 25.969-30.414 31.031-7.5547 3.2617-21.039 0.84375-27.469-2.5508 27.77-91.293 90.375-167.46 172.26-213.17zm-181.27 249.73c8.5703 3.1328 17.887 4.9688 26.945 4.9688 8.8516 0 17.344-1.5 24.395-4.5391 20.832-9 34.352-26.719 46.633-44.457 9.4297-13.613 18.336-26.457 30.168-32.477 12.113-6.1484 28.18-5.4766 45.039-4.7812l8.1367 0.32031c21.883 0.67578 53.062-1.0703 73.273-23.812 25.633-28.801 16.445-72.488-5.8672-100.74-3.7305-4.7266-7.8008-9.1875-11.887-13.648-5.5312-6.0547-10.762-11.758-14.531-17.793-3.5234-5.6445-4.9688-22.031-3.4141-31.07 41.812-17.398 87.543-27.133 135.45-27.711v37.273c0 10.352 8.3828 18.75 18.75 18.75 10.367 0 18.75-8.3984 18.75-18.75v-35.832c118.39 10.668 220.39 78.074 279.19 174.7 3.75 20.961-11.438 68.605-27.523 84.32-9.2266 9.0391-21.73 15.676-34.969 22.688-19.105 10.145-38.852 20.625-52.836 40.051-20.867 28.988-20.117 70.52 1.7812 98.758 5.1953 6.6953 11.195 12.395 16.949 17.906 10.969 10.461 17.645 17.324 17.773 24.469 0.16797 8.3047-8.6641 16.332-22.164 27.617-4.2383 3.5234-8.418 7.0508-12.227 10.633-23.477 22.051-37.238 54.449-36.863 86.664 0.28125 25.539 17.043 59.605 35.832 83.531-21 13.426-43.5 24.938-67.48 34.051-7.6328-101.62-92.57-182.06-196.12-182.06-77.68 0-146.12 44.512-178.03 113.06-77.773-69.336-121.97-167.23-121.97-272.44 0-23.832 2.457-47.082 6.8438-69.637z"/>
  <path d="m580.05 549.02c6.1133 1.3125 12.113 1.8945 17.98 1.8945 48.449 0 86.27-40.145 88.012-42.055 7.0508-7.5938 6.6016-19.461-1.0117-26.512-7.6133-7.0312-19.5-6.582-26.492 1.0117-0.35547 0.375-35.137 36.543-70.668 28.969-10.086-2.1758-20.082 4.293-22.258 14.418s4.293 20.102 14.418 22.273z"/>
  <path d="m655.35 773.34c0.73047 9.8438 8.9609 17.344 18.676 17.344 0.46875 0 0.9375 0 1.4062-0.054688 10.332-0.76953 18.074-9.7695 17.305-20.102-2.0625-27.602 4.9297-55.688 19.668-79.105 7.7812-12.355 15.992-19.93 24.395-22.539 9.8828-3.0547 15.414-13.574 12.355-23.457-3.0547-9.8828-13.5-15.43-23.457-12.355-17.176 5.3242-32.324 18.227-45.02 38.363-18.992 30.168-27.992 66.355-25.332 101.91z"/>
  <path d="m724.39 713.89c-6.168 13.367-8.9805 27.301-11.586 41.586-1.8359 10.18 4.9297 19.949 15.133 21.789 1.125 0.20703 2.25 0.30078 3.3555 0.30078 8.9062 0 16.801-6.3555 18.43-15.414 2.2109-12.262 4.3867-23.176 8.7383-32.57 4.125-8.9453 9.9766-15.508 16.48-18.488 9.4141-4.3125 13.555-15.449 9.2266-24.863-4.332-9.4141-15.469-13.539-24.863-9.207-14.645 6.7109-27.02 19.82-34.895 36.863z"/>
  <path d="m527.01 913.61c-0.50781 10.352 7.4453 19.145 17.773 19.668 1.0508 0.054688 103.54 5.9805 150.17 75.148 3.6172 5.3828 9.543 8.2695 15.562 8.2695 3.6016 0 7.2578-1.0312 10.461-3.207 8.5859-5.793 10.855-17.438 5.082-26.023-56.98-84.523-174.39-91.387-179.34-91.633-10.219-0.50781-19.145 7.4258-19.688 17.773z"/>
  <path d="m398.23 877.01c9.1133 4.4062 19.406 6.6367 30.055 6.6367 8.6641 0 17.551-1.4805 26.156-4.4609 14.852-5.1367 29.211-14.625 42.637-28.199 14.457-14.625 25.949-31.648 34.125-50.57 10.875-25.312 12.148-48.824 3.6953-68.023-9.2266-21-22.914-28.273-32.758-30.695-27.695-6.7891-55.387 15.602-75.656 31.895-3.9766 3.168-7.6133 6.1133-10.801 8.418l-0.14844 0.11328c-7.3867 5.3438-15 10.855-22.012 17.98-14.512 14.773-23.906 34.238-26.438 54.863-1.9492 16.051 0.82422 30.508 8.0234 41.867 5.3633 8.457 13.367 15.43 23.117 20.176zm6.0742-57.523c1.5391-12.43 7.1992-24.188 15.977-33.113 4.8008-4.8945 10.836-9.2617 17.23-13.895l0.14844-0.09375c3.6172-2.625 7.8008-5.9609 12.301-9.582 10.93-8.7578 33.469-27.207 43.273-24.695 2.3047 0.5625 4.9883 3.9766 7.3672 9.375 5.25 11.906 0.80469 27.301-3.8242 38.082-6.2266 14.398-15.32 27.898-26.344 39.039-9.3555 9.4492-18.863 15.898-28.238 19.145-9.8438 3.4141-19.914 3.2422-27.602-0.48828-3.4297-1.6484-6.207-3.9766-7.8203-6.5078-2.457-3.8984-3.3203-10.031-2.457-17.27z"/>
 </g>
</svg>
