<?xml version="1.0" encoding="UTF-8"?>
<svg width="1200pt" height="1200pt" version="1.1" viewBox="0 0 1200 1200" xmlns="http://www.w3.org/2000/svg">
 <path d="m600 267.49c183.46 0 332.52 149.05 332.52 332.52s-149.05 332.52-332.52 332.52-332.52-149.05-332.52-332.52c0.003906-183.46 149.05-332.52 332.52-332.52zm15.113 32.117v103.91h93.754c-3-7.3359-6.1328-14.57-9.4453-21.254-23.359-47.105-53.031-75.625-84.305-82.656zm-30.23 0c-31.273 7.0312-60.945 35.551-84.309 82.656-3.3164 6.6836-6.4453 13.918-9.4453 21.254h93.754zm102.49 11.098c14.754 16.004 27.824 35.625 38.969 58.094 5.3945 10.875 10.551 22.539 15.113 34.715h88.324c-37.105-43.348-86.316-75.938-142.4-92.809zm-174.76 0c-56.082 16.871-105.3 49.461-142.41 92.812h88.324c4.5625-12.176 9.7227-23.84 15.113-34.715 11.145-22.469 24.215-42.094 38.969-58.094zm340.07 123.04h-101.31c8.2188 27.934 14.184 58.457 17.949 90.688h123.51c-8.3984-32.691-22.082-63.27-40.148-90.688zm-132.96 0h-104.62v90.688h123.98c-4.0273-32.789-10.727-63.254-19.363-90.688zm-134.85 0h-104.62c-8.6367 27.43-15.336 57.895-19.363 90.688h123.98zm-136.27 0h-101.31c-18.066 27.418-31.75 57.996-40.148 90.688h123.51c3.7656-32.227 9.7305-62.754 17.949-90.688zm450.12 120.91h-126.58c1.0156 14.871 1.6523 29.914 1.6523 45.344 0 15.348-0.64844 30.559-1.6523 45.344h126.58c2.2031-14.73 3.543-29.992 3.543-45.344 0-15.426-1.3203-30.543-3.543-45.344zm-156.81 0h-126.82v90.688h126.82c1.0625-14.789 1.6523-29.938 1.6523-45.344 0-15.414-0.58984-30.547-1.6523-45.344zm-157.05 0h-126.82c-1.0586 14.801-1.6484 29.93-1.6484 45.344 0 15.406 0.58984 30.555 1.6523 45.344h126.82v-90.688zm-157.05 0h-126.58c-2.2227 14.801-3.543 29.914-3.543 45.344 0 15.352 1.3398 30.609 3.543 45.344h126.58c-1.0039-14.785-1.6523-29.996-1.6523-45.344 0-15.43 0.63672-30.473 1.6523-45.344zm465 120.91h-123.28c-3.7656 32.254-9.9531 62.742-18.184 90.688h101.31c18.105-27.48 31.754-57.91 40.148-90.688zm-153.74 0h-123.98v90.688h104.62c8.6055-27.387 15.348-57.969 19.363-90.688zm-154.21 0h-123.98c4.0156 32.715 10.758 63.301 19.363 90.688h104.62zm-154.45 0h-123.28c8.3906 32.773 22.043 63.207 40.148 90.688h101.31c-8.2305-27.945-14.422-58.43-18.184-90.688zm399.35 120.91h-88.324c-4.5625 12.164-9.7227 23.605-15.113 34.48-11.145 22.469-24.215 42.523-38.969 58.566 56.121-16.883 105.29-49.652 142.41-93.047zm-120.68 0h-93.992v104.15c31.273-7.0312 60.945-35.785 84.309-82.891 3.3594-6.7695 6.6484-13.812 9.6836-21.254zm-124.22 0h-93.992c3.0352 7.4414 6.3242 14.484 9.6836 21.254 23.363 47.105 53.035 75.859 84.309 82.891v-104.15zm-126.35 0h-88.324c37.117 43.395 86.285 76.164 142.41 93.047-14.754-16.043-27.82-36.098-38.969-58.566-5.3945-10.875-10.551-22.316-15.113-34.48z" fill="#fff"/>
</svg>
