<?xml version="1.0" encoding="UTF-8"?>
<svg width="1200pt" height="1200pt" version="1.1" viewBox="0 0 1200 1200" xmlns="http://www.w3.org/2000/svg">
 <path d="m804.11 650.91 27.238-167.4c22.355-6.4805 38.797-11.953 44.879-15.48 13.559-7.8477 68.316-48.863 93.156-67.598l23.316 69.109 135.28-34.738-93.348-367.42-163.44 42.051 11.676 34.609c-70.957 1.9336-305.09 9-343.81 18.551-32.797 8.1133-64.105 60.348-95.93 135.96l-52.379-8.5078c-9.2539-1.5977-17.785 4.7266-19.273 13.883l-56.496 346.99h-110.95l-132 174.84v306.85h960l0.003907-306.86-132-174.84zm-256.98-455.69c32.617-8.0625 254.98-15.457 346.99-17.867l63.949 189.54c-34.633 26.219-87.684 65.699-98.676 72.07-13.141 7.5703-126.16 37.164-274.82 71.965-23.723 5.5078-54.938 7.0781-68.832-16.895-6.1914-10.703-7.8359-23.16-4.6445-35.113 3.1211-11.676 10.5-21.457 20.832-27.637l38.93-17.762 134.9-56.566c8.5547-3.5898 12.574-13.43 9-21.984-3.5898-8.5547-13.453-12.59-21.996-9l-22.598 9.4805-192.83-31.344c24.434-57.188 49.848-103.95 69.793-108.89zm-145.2 130.68 209.73 34.094-54.277 22.766-40.188 18.312c-0.49219 0.22656-0.96094 0.46875-1.4297 0.74219-18.445 10.645-31.633 27.84-37.141 48.445-5.5078 20.617-2.6641 42.145 8.0273 60.625 14.148 24.422 38.723 37.078 70.836 37.078 10.754 0 22.367-1.4297 34.715-4.2969 48.266-11.293 137.4-32.508 203.5-50.23l-44.41 272.86h-421.07zm-131.36 400.84h32.039l-6.4453 39.539-55.449 0.003906zm520.44 39.543h-5.6875l6.4336-39.539h41.566l29.855 39.539z" fill="#fff"/>
</svg>
