<?xml version="1.0" encoding="UTF-8"?>
<svg width="1200pt" height="1200pt" version="1.1" viewBox="0 0 1200 1200" xmlns="http://www.w3.org/2000/svg">
 <path d="m1081.2 699.6c38.398-64.801 58.801-139.2 58.801-214.8 0-231.6-188.4-420-420-420s-420 188.4-420 420c0 25.199 2.3984 50.398 7.1992 75.602-139.2 19.199-247.2 140.4-247.2 284.4 0 50.398 13.199 100.8 38.398 144l-32.398 115.2c-2.3984 8.3984 0 18 6 24 4.8008 4.8008 10.801 7.1992 16.801 7.1992 2.3984 0 4.8008 0 7.1992-1.1992l118.8-34.801c40.801 21.602 87.602 33.602 134.4 33.602 141.6 0 260.4-103.2 283.2-237.6 28.801 6 57.602 9.6016 88.801 9.6016 69.602 0 139.2-18 200.4-50.398l182.4 52.801c2.3984 1.1992 4.8008 1.1992 7.1992 1.1992 6 0 12-2.3984 16.801-7.1992 6-6 8.3984-15.602 6-24zm-733.2 385.2c-42 0-82.801-10.801-120-31.199-3.6016-2.3984-7.1992-3.6016-12-3.6016-2.3984 0-4.8008 0-7.1992 1.1992l-86.398 25.199 24-82.801c2.3984-6 1.1992-13.199-2.3984-19.199-24-38.398-37.199-82.801-37.199-128.4 0-122.4 92.398-223.2 210-237.6 39.602 129.6 139.2 231.6 266.4 274.8-16.805 114-115.2 201.6-235.2 201.6zm576-279.6c-6-2.3984-13.199-1.1992-18 2.3984-56.398 32.398-120 49.199-184.8 49.199-205.2 0-372-166.8-372-372s166.8-372 372-372 372 166.8 372 372c0 70.801-20.398 139.2-57.602 199.2-3.6016 6-4.8008 13.199-2.3984 19.199l42 145.2zm-49.199-422.4c8.3984 76.801-38.398 146.4-112.8 168-10.801 3.6016-18 12-18 22.801v30c0 13.199-10.801 24-24 24s-24-10.801-24-24v-30-6c2.3984-30 22.801-55.199 52.801-63.602 50.398-14.398 84-63.602 78-116.4-6-49.199-45.602-90-94.801-94.801-31.199-3.6016-61.199 6-84 26.398-22.801 20.398-36 50.398-36 80.398 0 8.3984-4.8008 15.602-10.801 20.398-3.6016 2.3984-8.3984 3.6016-13.199 3.6016-13.199 0-24-10.801-24-24 0-44.398 19.199-86.398 51.602-116.4 33.602-30 78-43.199 121.2-38.398 72 8.3984 130.8 67.199 138 138zm-138 301.2c4.8008 4.8008 7.1992 10.801 7.1992 16.801s-2.3984 12-7.1992 16.801c-4.8008 4.8008-10.801 7.1992-16.801 7.1992s-12-2.3984-16.801-7.1992c-4.8008-4.8008-7.1992-10.801-7.1992-16.801s2.3984-12 7.1992-16.801c8.4023-9.6016 25.199-9.6016 33.602 0z" fill="#fff"/>
</svg>
