<?xml version="1.0" encoding="UTF-8"?>
<svg width="1200pt" height="1200pt" version="1.1" viewBox="0 0 1200 1200" xmlns="http://www.w3.org/2000/svg">
 <g fill="#fff">
  <path d="m66.133 961.93c9.2617 56.531 58.293 99.133 116.87 99.133 65.438 0 118.69-53.25 118.69-118.69 0-0.24219-0.054688-0.44922-0.054688-0.69531 30.844-9.4297 64.238-21.336 99.77-35.664 68.738 46.539 148.82 71.305 232.5 71.305 229.71 0 416.59-186.88 416.59-416.59 0-28.086-2.9609-55.949-8.4922-83.043 133.29-136.86 185.74-252.17 143.53-317.12-45.77-70.18-186.52-63.43-386.53 18.094-51.898-22.648-107.36-34.273-165.09-34.273-198.79 0-366.52 141.36-407.02 328.91l-0.32031 0.69531 0.14844 0.054688c-5.1367 24.02-8.0625 48.805-8.832 74.117-175.78 161.06-251.89 301.33-203.4 375.96 11.25 17.25 28.82 29.738 51.656 37.82zm116.87 61.633c-43.031 0-78.543-33.617-80.852-76.555l-0.32031-2.5117c-0.074219-0.71094-0.039063-1.4258-0.039063-2.1172 0-44.758 36.414-81.188 81.188-81.188 40.219 0 74.699 29.887 80.289 69.898 0.60156 3.7109 0.88281 7.4258 0.88281 11.289 0 44.773-36.414 81.188-81.188 81.188zm102.23-577.27c7.8359-8.5117 20.945-17.082 34.332-15.32 1.8359 0.22656 2.9453 0.60156 3.0742 0.39453 0.1875 0.58203 0.58203 2.3438 0.42969 6.4688-0.58203 17.305-5.4922 34.688-10.688 53.062-4.2383 14.961-8.5859 30.43-10.801 46.648-5.5312 41.023 8.832 92.25 53.492 107.77 3.7695 1.3125 7.7617 2.3438 11.738 3.3359 5.1367 1.2734 11.531 2.8867 13.312 4.875 1.7422 1.9688 1.6484 8.7383 1.5547 14.719-0.11328 7.2734-0.22656 15.508 2.0625 24.039 5.625 20.867 23.793 36.957 52.539 46.48 4.707 1.5547 9.5234 2.9609 14.363 4.332 12.113 3.4883 23.551 6.7891 31.895 12.844 14.812 10.801 20.383 30.02 26.832 52.258 0.5625 1.9492 1.2188 4.0312 1.8203 6.0195-35.57 18.133-70.707 34.539-105.04 49.18-94.707-71.664-151.05-183.96-151.05-302.68v-3.7891c0.24219-24.805 3.0391-49.031 7.875-72.508 6.1133-13.836 12.637-27.711 22.258-38.137zm157.99 441.92c26.793-11.926 53.98-24.844 81.395-38.758 4.0312 7.9297 8.6641 15.656 15.02 22.539 16.633 18 41.418 28.012 66.168 28.012 9.6953 0 19.387-1.5391 28.574-4.7266 44.082-15.281 65.383-60.602 70.633-97.93 2.4922-17.773 2.418-35.363 1.8945-52.555 5.9062-3.7891 11.852-7.4805 17.719-11.324 108.3-70.594 205.97-147.34 284.87-223.41 2.25 16.707 3.5078 33.637 3.5078 50.68 0 7.332-0.69531 14.492-1.1055 21.711-30.43 4.6875-62.477 22.012-79.051 44.719-6.6172 9.0547-11.418 18.676-16.051 27.957-5.8672 11.738-11.418 22.836-19.539 30.074-5.6992 5.082-13.48 8.9609-21.73 13.07-9.918 4.9297-21.148 10.539-30.77 19.367-15.523 14.27-25.332 35.852-27.602 60.75-1.8945 20.531 1.2734 40.855 4.0703 58.781 0.50781 3.2422-0.1875 11.531-0.76953 18.207-0.97656 11.605-1.9297 24.039-0.11328 35.043-55.125 31.293-118.67 49.406-186.45 49.406s-133.05-17.852-190.69-51.617zm226.35-120.02c-0.16797 8.082-0.60156 16.07-1.707 23.945-3.6953 26.344-17.664 57.957-45.77 67.707-18.695 6.5078-41.793 0.89844-54.898-13.273-3.8047-4.125-6.7695-9.0938-9.4297-14.383 37.219-19.781 74.645-41.211 111.8-63.992zm187.65 98.211c0.20703-2.8867 0.41406-5.6445 0.60156-7.8555 0.84375-9.9922 1.6484-19.445 0.44922-27.133-2.5859-16.555-5.25-33.676-3.7891-49.594 1.4453-15.617 6.9922-28.594 15.637-36.562 5.7188-5.25 13.688-9.2266 22.125-13.426 9.6172-4.7812 20.512-10.219 29.945-18.617 13.48-12.02 21.242-27.562 28.125-41.289 4.1445-8.2695 8.0625-16.086 12.824-22.648 8.9609-12.301 26.926-23.023 44.551-27.918-16.219 100.31-71.758 187.39-150.47 245.04zm296.89-685.37c29.492 45.375-17.512 141.39-123.15 254.08-31.105-98.023-98.344-181.91-187.16-233.79 158.89-60.113 278.81-68.605 310.31-20.289zm-153.28 284.95c-79.52 79.52-181.03 160.46-294.71 234.73 0.054687-3.2812 0-6.582 0.1875-9.8438 1.2188-21.039 7.5195-59.008 35.926-76.949 8.3242-5.25 18.523-8.7383 29.324-12.43 12.094-4.1445 24.602-8.418 36.414-15.711 25.668-15.824 43.125-43.668 46.707-74.492 3.2617-27.992-4.6328-57.207-22.238-82.273-1.3672-1.9492-2.8125-3.8828-4.2578-5.8125-3.543-4.7617-6.918-9.2812-8.457-13.352-1.4453-3.7891-2.0078-8.9805-2.625-14.492-1.1992-10.914-2.6797-24.488-12.094-36.227-11.586-14.477-30.695-21.148-57.168-19.594l-7.9297 0.52344c-10.875 0.78906-21.168 1.5742-28.555-1.5547-11.625-4.9141-16.332-21.02-14.176-33.77 2.8867-17.082 14.512-33.449 25.742-49.293 3.207-4.5195 13.648-11.758 22.031-17.586 12.188-8.457 24.602-17.102 32.906-27.488 4.3672 1.8203 8.7383 3.6016 13.051 5.5859 103.86 47.117 181.59 140.12 209.91 249.99zm-366.92-284.08c35.867 0 70.762 4.9492 104.34 14.605-5.043 3.8984-10.633 7.8008-14.645 10.574-12.469 8.6445-24.227 16.801-31.258 26.699-13.031 18.375-27.789 39.207-32.117 64.727-4.668 27.43 6.4141 61.875 36.562 74.605 15.695 6.6172 31.707 5.457 45.883 4.4062l7.2734-0.48828c12.918-0.78906 22.406 1.3125 25.836 5.6055 2.5859 3.2266 3.2812 9.543 4.0859 16.855 0.78906 7.2383 1.6875 15.449 4.8359 23.719 3.4141 8.9805 8.7383 16.125 13.445 22.426l3.6367 4.9883c12.113 17.25 17.832 37.801 15.676 56.363-2.25 19.238-13.406 37.219-29.156 46.914-8.25 5.082-18.262 8.5117-28.875 12.133-12.375 4.2383-25.164 8.5859-37.199 16.199-31.574 19.914-50.531 57.75-53.363 106.48-0.69531 12.148-0.46875 24.133-0.09375 35.945-41.062 25.742-82.539 49.801-123.75 71.867-7.2188-24.898-15.637-52.82-40.406-70.875-13.688-9.957-29.586-14.531-43.613-18.562-4.332-1.2383-8.6797-2.4922-12.918-3.8984-15.75-5.2109-26.008-12.75-28.125-20.664-0.91797-3.4492-0.84375-8.418-0.78906-13.707 0.16797-11.531 0.39453-27.336-11.062-40.219-9.4492-10.613-22.07-13.762-32.195-16.312-2.8867-0.73047-5.8125-1.4258-8.5508-2.3828-23.664-8.2305-32.324-40.105-28.633-67.352 1.8359-13.594 5.6641-27.133 9.7109-41.477 5.5703-19.727 11.324-40.125 12.094-61.988 0.32031-9.207-0.41406-22.648-10.293-33.168-6.207-6.6172-15.188-10.82-25.969-12.188-10.445-1.3125-21.207 0.11328-31.555 3.7305 61.332-127.18 191.38-215.61 341.18-215.61zm-414.45 416.1c9.8984 109.18 62.758 210.68 146.87 281.61-24.957 9.6172-48.602 17.832-70.949 24.789-15.918-47.211-60.957-80.699-112.37-80.699-58.258 0-106.74 42.227-116.72 97.648-8.7578-4.7422-15.75-10.555-20.383-17.68-34.086-52.445 35.176-173.04 173.55-305.66z"/>
  <path d="m438.7 443.85c3.0938 0 6.2266-0.30078 9.4141-0.9375 19.633-3.8984 36.301-20.211 44.551-43.633 3-8.4766 4.7422-16.801 6.4492-24.883 1.4805-7.0312 2.8672-13.648 4.9492-19.668 5.1953-15.055 15.414-28.125 28.801-36.789 2.25-1.4609 4.5742-2.8125 6.918-4.1797 8.457-4.9297 18.039-10.52 25.406-20.25 10.914-14.398 12.543-32.699 4.2734-47.719-8.3047-15.113-24.676-23.512-42.488-22.07-28.145 2.3242-57.977 19.332-76.539 34.445-20.512 16.742-38.176 39.414-52.52 67.387-8.6445 16.855-19.52 42.395-14.062 69.43 5.082 25.312 27.523 48.844 54.844 48.844zm-7.4258-101.18c11.961-23.344 26.383-41.98 42.863-55.445 14.605-11.926 37.555-24.617 55.914-26.137 4.3672-0.39453 6 1.8203 6.543 2.7734 1.3867 2.5312 0.039062 5.2109-1.3125 7.0117-2.832 3.75-8.457 7.0312-14.398 10.48-2.8516 1.6484-5.6992 3.3203-8.4375 5.1016-20.363 13.199-35.945 33.094-43.836 56.023-2.8516 8.2305-4.5547 16.352-6.207 24.188-1.5195 7.1992-2.9453 13.988-5.1016 20.137-3.6953 10.48-10.164 18.055-16.48 19.312-7.9688 1.5547-18.039-7.8008-20.195-18.508-2.3828-11.832 1.0117-26.102 10.648-44.945z"/>
  <path d="m628.12 281.46c25.949 0 47.082-21.113 47.082-47.082s-21.113-47.082-47.082-47.082-47.082 21.113-47.082 47.082 21.113 47.082 47.082 47.082zm0-56.645c5.2891 0 9.582 4.293 9.582 9.582 0 5.2891-4.293 9.582-9.582 9.582s-9.582-4.293-9.582-9.582c0-5.2891 4.293-9.582 9.582-9.582z"/>
 </g>
</svg>
