
<svg xmlns="http://www.w3.org/2000/svg" version="1.1" xmlns:xlink="http://www.w3.org/1999/xlink" preserveAspectRatio="none" x="0px" y="0px" width="1243px" height="420px" viewBox="0 0 1243 420">
<defs>
<linearGradient id="Gradient_1" gradientUnits="userSpaceOnUse" x1="89.47499999999998" y1="75.15" x2="279.425" y2="358.45000000000005" spreadMethod="pad">
<stop  offset="0%" stop-color="#FFFF00"/>

<stop  offset="100%" stop-color="#FF6699"/>
</linearGradient>

<filter id="Filter_1" x="-20%" y="-20%" width="140%" height="140%" color-interpolation-filters="sRGB">
<feColorMatrix in="SourceGraphic" type="matrix" values="0 0 0 0 1 0 0 0 0 1 0 0 0 0 1 0 0 0 1 0" result="result1"/>
</filter>
</defs>

<g id="Layer_1">
<g id="Layer_1" transform="matrix( 1, 0, 0, 1, 0.05,0) ">
<mask id="Mask_Mask_1">
<g>
<g>
<g>
<path fill="#FFFFFF" stroke="none" d="
M 347.25 181.1
Q 347.25 147.05 334.2 115.65 321.15 84.2 297.1 60.15 273.05 36.05 241.6 23 210.15 10 176.15 9.95 174.897265625 9.9517578125 173.65 9.95 172.40078125 9.9517578125 171.15 9.95 137.1 10 105.65 23 74.25 36.05 50.2 60.15 26.1 84.2 13.1 115.65 0.05 147.05 0 181.1 0.0033203125 182.2296875 0 183.35 0.001953125 184.7263671875 0 186.1 0.05 203.45 4.5 220.25 8.9 237.1 17.4 252.25 25.9 267.4 37.9 279.95 49.95 292.5 64.75 301.65
L 79.75 310.85 79.75 418.7
Q 79.75 420.75 81.2 422.2 82.7 423.65 84.75 423.65
L 242.6 423.65
Q 244.65 423.65 246.1 422.2 247.6 420.75 247.6 418.7
L 247.6 377.15 295.75 377.15
Q 300.7 377.15 305.3 375.25 309.85 373.35 313.4 369.85 316.9 366.35 318.8 361.75 320.7 357.2 320.7 352.25
L 320.7 304.05 351.1 304.05
Q 355.5 304.05 359.45 302.05 363.4 300 365.95 296.45 368.5 292.85 369.2 288.5 369.5890625 285.8658203125 369.2 283.3 369.8205078125 279.015625 368.4 274.95
L 347.25 212.2 347.25 181.1
M 332.3 218
Q 332.3 218.85 332.55 219.6
L 353.95 283.1
Q 353.980859375 283.1904296875 354 283.25 353.620703125 284.544140625 352.85 285.65 351.7 287.25 349.9 288.2 348.2853515625 289.007421875 346.5 289.05
L 310.7 289.05
Q 308.65 289.1 307.15 290.55 305.75 292 305.7 294.05
L 305.7 347.55
Q 305.6390625 350.3458984375 304.55 352.95 303.4 355.7 301.35 357.8 299.25 359.9 296.5 361.05 293.8935546875 362.1400390625 291.05 362.2
L 237.6 362.2
Q 235.55 362.2 234.05 363.65 232.6 365.1 232.6 367.2
L 232.6 408.7 94.75 408.7 94.75 303.05
Q 94.75 301.75 94.1 300.65 93.45 299.5 92.35 298.8
L 74.95 288.15
Q 61.25 279.65 50.1 268.05 38.95 256.45 31.1 242.4 23.2 228.35 19.1 212.75 15.2994140625 198.1578125 14.95 183.05 15.5302734375 152.651171875 27.25 124.4 39.5 94.8 62.2 72.15 84.85 49.45 114.45 37.2 142.941796875 25.38046875 173.65 24.9 204.35625 25.38046875 232.8 37.2 262.45 49.45 285.1 72.15 307.75 94.8 320.05 124.4 331.76171875 152.7470703125 332.3 183.3
L 332.3 218
M 234.25 188.1
Q 234.25 186.15 232.9 184.75 231.5 183.4 229.6 183.35
L 229.25 183.35
Q 227.8 183.45 226.65 184.35
L 176.7 222.2 126.8 184.3
Q 125.9 183.6 124.75 183.4 123.65 183.2 122.55 183.5 121.45 183.85 120.6 184.65 119.8 185.4 119.4 186.5 119.05 187.6 119.2 188.7 119.4 189.85 120.05 190.8
L 172.85 266.35
Q 173.5 267.3 174.55 267.8 175.55 268.35 176.7 268.35 177.85 268.35 178.9 267.8 179.95 267.3 180.6 266.35
L 233.35 190.85
Q 234.25 189.65 234.25 188.1
M 174.4 77.35
Q 173.3 77.95 172.65 79.05
L 123.9 160.15
Q 123 161.75 123.3 163.5 123.65 165.25 125.05 166.35
L 173.85 203.95
Q 175.1 204.95 176.7 204.95 178.3 204.95 179.6 203.95
L 228.35 166.35
Q 229.8 165.25 230.1 163.5 230.45 161.75 229.55 160.15
L 180.75 79.05
Q 180.1 77.95 179.05 77.35 177.95 76.75 176.7 76.75 175.45 76.75 174.4 77.35
M 176.75 136.45
Q 177.6 136.45 178.4 136.8
L 219.8 155.55
Q 221.35 156.25 221.9 157.85 222.5 159.4 221.8 160.95 221.15 162.45 219.55 163.05 217.95 163.65 216.45 162.95
L 178.2 145.65
Q 177.5 145.3 176.7 145.3 175.95 145.3 175.25 145.65
L 137 162.95
Q 135.5 163.65 133.85 163.1 132.3 162.5 131.6 160.95 130.9 159.4 131.5 157.85 132.1 156.25 133.65 155.55
L 175.05 136.8
Q 175.85 136.45 176.75 136.45 Z"/>
</g>
</g>
</g>
</mask>

<g id="Layer_1" mask="url(#Mask_Mask_1)">
<g>
<g filter="url(#Filter_1)">
<g>
<path fill="url(#Gradient_1)" stroke="none" d="
M 369.15 423.65
L 369.15 9.95 -0.05 9.95 -0.05 423.65 369.15 423.65 Z"/>

<path fill="#009966" stroke="none" d="
M 430 162
L 430 253 572 253 572 162 430 162 Z"/>
</g>
</g>

<g filter="url(#Filter_1)">
<path stroke="#000000" stroke-width="1" stroke-linejoin="round" stroke-linecap="round" fill="none" d="
M 430 162
L 572 162 572 253 430 253 430 162 Z"/>
</g>
</g>
</g>

<g id="Layer_1" transform="matrix( 1.1071014404296875, 0, 0, 1.1071014404296875, 489.45,76.45) "/>

<g id="Layer_3" transform="matrix( 1.1071014404296875, 0, 0, 1.1071014404296875, 489.45,76.45) "/>

<g id="Layer_2" transform="matrix( 1.1071014404296875, 0, 0, 1.1071014404296875, 489.45,76.45) ">
<g>
<g>
<g>
<path fill="#FFFFFF" stroke="none" d="
M 265.2 205.15
L 274.45 263.1 289.25 263.1 271.15 159.9 237.05 234.5 204.15 159.9 183.95 263.1 198.9 263.1 209.25 205.1 236.8 267.5 265.2 205.15
M 108.05 167.15
L 93.65 167.15 93.65 229.2
Q 93.65 244.45 103.05 254.25 113.6 265.3 129 265.3 144.4 265.3 155 254.25 164.45 244.4 164.45 229.2
L 164.45 167.15 150 167.15 150 225.2
Q 150 237.85 146 243.35 139.95 251.65 129 251.65 118.15 251.65 112.1 243.35 108.05 237.55 108.05 225.2
L 108.05 167.15
M 14.5 167.15
L 0 167.15 0 263 14.5 263 14.5 218.3 55.8 218.3 55.8 263 70.25 263 70.25 167.15 55.8 167.15 55.8 204.65 14.5 204.65 14.5 167.15
M 54.1 30.55
Q 54.1 18.25 45.75 10.2 41.05 5.55 34.8 3.9 28.65 2.2 16.5 2.2
L 0 2.2 0 98.05 14.55 98.05 14.55 59.15 21.3 59.15
Q 36.35 59.15 45.2 51.45 54.1 43.7 54.1 30.55
M 13.95 45.7
L 13.95 15.55 18.75 15.55
Q 39.6 15.55 39.6 30.4 39.6 45.7 19.4 45.7
L 13.95 45.7
M 112.8 9.35
Q 104.4 2.2 85.45 2.2
L 68.55 2.2 68.55 98.05 82.95 98.05 82.95 58.8 85.55 58.8 112.8 98.05 130.45 98.05 100.9 57.2
Q 110.4 55.15 116.2 47.85 122.05 40.55 122.05 30.3 122.05 17.3 112.8 9.35
M 83.05 46.25
L 83.05 15.55 88.2 15.55
Q 108.15 15.55 108.15 30.4 108.15 46.25 87.65 46.25
L 83.05 46.25
M 223.3 84.75
Q 238 70.35 238 49.7 238 29.25 223.35 14.6 208.75 0 188.35 0 167.75 0 153 14.45 138.25 29 138.25 49.15 138.25 72.15 154.4 86.35 169.15 99.15 187.65 99.15 208.55 99.15 223.3 84.75
M 163 24.35
Q 173.3 13.9 188.2 13.9 203.15 13.9 213.3 24.35 223.5 34.75 223.5 50.15 223.5 65.3 213.15 75.9 202.85 86.35 187.8 86.35 173.9 86.35 163.4 76.05 152.7 65.9 152.7 49.9 152.7 34.75 163 24.35
M 403 262.75
L 417.5 262.75 417.5 195.7 487.7 268.65 487.7 167 473.15 167 473.15 233.6 403 160.5 403 262.75
M 375.35 263
L 391.3 263 345.3 161.6 297.6 263 313.3 263 324 239.85 365.25 239.85 375.35 263
M 360.05 226.25
L 331.1 226.25 345.9 193.4 360.05 226.25
M 337 84.75
Q 351.7 70.4 351.7 49.7 351.7 29.25 337.05 14.6 322.45 0 302.05 0 281.4 0 266.75 14.45 251.95 29 251.95 49.15 251.95 72.15 268.15 86.35 282.9 99.15 301.3 99.15 322.25 99.15 337 84.75
M 337.2 50.15
Q 337.2 65.3 326.9 75.9 316.55 86.35 301.5 86.35 287.7 86.35 277.05 76.05 266.45 65.85 266.45 49.9 266.45 34.75 276.7 24.35 287 13.9 301.85 13.9 316.9 13.9 327 24.35 337.2 34.75 337.2 50.15
M 418 15.8
L 418 2.2 370.05 2.2 370.05 98.05 384.55 98.05 384.55 52.4 416.85 52.4 416.85 38.85 384.55 38.85 384.55 15.8 418 15.8
M 537.85 167.15
L 537.85 180.75 559.95 180.75 559.95 263 574.35 263 574.35 180.75 596.35 180.75 596.35 167.15 537.85 167.15
M 525 167.15
L 510.5 167.15 510.5 263 525 263 525 167.15
M 554.4 14.6
Q 539.8 0 519.45 0 498.85 0 484.1 14.45 469.3 29 469.3 49.15 469.3 72.15 485.5 86.35 500.25 99.15 518.65 99.15 539.6 99.15 554.35 84.75 569.05 70.4 569.05 49.7 569.05 29.25 554.4 14.6
M 494.05 24.35
Q 504.25 13.9 519.2 13.9 534.25 13.9 544.35 24.35 554.55 34.8 554.55 50.15 554.55 65.3 544.25 75.9 533.9 86.35 518.9 86.35 505.05 86.35 494.4 76.05 483.8 65.85 483.8 49.9 483.8 34.75 494.05 24.35
M 634.8 15.8
L 634.8 2.2 586.9 2.2 586.9 98.05 601.35 98.05 601.35 52.4 633.6 52.4 633.6 38.85 601.35 38.85 601.35 15.8 634.8 15.8
M 681.1 167.15
L 664.4 167.15 642.3 205.45 620.35 167.15 603.65 167.15 635.05 221.6 635.05 263 649.55 263 649.55 221.6 681.1 167.15 Z"/>
</g>
</g>
</g>
</g>
</g>
</g>

<g id="Layer_7"/>
</svg>
