<svg width="1282" height="459" viewBox="0 0 1282 459" fill="none" xmlns="http://www.w3.org/2000/svg">
<path d="M504.166 141.858V187.286H487.192V75.4199H506.424C515.846 75.4199 522.961 76.072 527.769 77.3761C532.625 78.6802 536.899 81.1436 540.59 84.7662C547.049 91.0454 550.279 98.9667 550.279 108.53C550.279 118.77 546.831 126.885 539.934 132.874C533.038 138.864 523.738 141.858 512.033 141.858H504.166ZM503.451 126.15H509.831C525.523 126.15 533.369 120.2 533.369 108.3C533.369 96.7861 525.279 91.0291 509.098 91.0291H503.451V126.15ZM604.908 139.612L639.381 187.286H618.827L587.022 141.496H583.993V187.286H567.189V75.4199H586.878C601.59 75.4199 612.216 78.1972 618.755 83.7519C625.967 89.9345 629.573 98.0973 629.573 108.241C629.573 116.162 627.313 122.973 622.794 128.672C618.274 134.372 612.312 138.018 604.908 139.612ZM584.099 126.8H589.446C605.393 126.8 613.366 120.644 613.366 108.331C613.366 96.7962 605.61 91.0291 590.097 91.0291H584.099V126.8ZM648.487 130.232C648.487 114.517 654.233 101.019 665.726 89.7389C677.171 78.4585 690.923 72.8184 706.985 72.8184C722.853 72.8184 736.462 78.5067 747.81 89.8835C759.207 101.26 764.905 114.927 764.905 130.883C764.905 146.936 759.183 160.554 747.738 171.738C736.245 182.971 722.372 188.587 706.119 188.587C691.741 188.587 678.83 183.597 667.385 173.618C654.786 162.579 648.487 148.117 648.487 130.232ZM665.397 131.062C665.397 143.459 669.536 153.652 677.815 161.643C686.046 169.633 695.553 173.628 706.335 173.628C718.032 173.628 727.899 169.56 735.938 161.425C743.976 153.192 747.995 143.169 747.995 131.353C747.995 119.392 744.024 109.368 736.082 101.281C728.188 93.1456 718.417 89.0779 706.768 89.0779C695.168 89.0779 685.373 93.1456 677.382 101.281C669.392 109.32 665.397 119.247 665.397 131.062ZM781.165 130.232C781.165 114.517 786.911 101.019 798.404 89.7389C809.849 78.4585 823.602 72.8184 839.663 72.8184C855.531 72.8184 869.14 78.5067 880.489 89.8835C891.885 101.26 897.583 114.927 897.583 130.883C897.583 146.936 891.861 160.554 880.416 171.738C868.924 182.971 855.051 188.587 838.797 188.587C824.419 188.587 811.508 183.597 800.063 173.618C787.464 162.579 781.165 148.117 781.165 130.232ZM798.075 131.062C798.075 143.459 802.214 153.652 810.494 161.643C818.725 169.633 828.231 173.628 839.013 173.628C850.71 173.628 860.577 169.56 868.616 161.425C876.654 153.192 880.674 143.169 880.674 131.353C880.674 119.392 876.702 109.368 868.76 101.281C860.866 93.1456 851.095 89.0779 839.446 89.0779C827.846 89.0779 818.051 93.1456 810.06 101.281C802.07 109.32 798.075 119.247 798.075 131.062ZM974.979 91.2869H935.949V118.167H973.601V134.034H935.949V187.286H919.046V75.4199H974.979V91.2869ZM1034.81 130.232C1034.81 114.517 1040.56 101.019 1052.05 89.7389C1063.5 78.4585 1077.25 72.8184 1093.31 72.8184C1109.18 72.8184 1122.79 78.5067 1134.14 89.8835C1145.53 101.26 1151.23 114.927 1151.23 130.883C1151.23 146.936 1145.51 160.554 1134.07 171.738C1122.57 182.971 1108.7 188.587 1092.45 188.587C1078.07 188.587 1065.16 183.597 1053.71 173.618C1041.11 162.579 1034.81 148.117 1034.81 130.232ZM1051.72 131.062C1051.72 143.459 1055.86 153.652 1064.14 161.643C1072.37 169.633 1081.88 173.628 1092.66 173.628C1104.36 173.628 1114.23 169.56 1122.27 161.425C1130.3 153.192 1134.32 143.169 1134.32 131.353C1134.32 119.392 1130.35 109.368 1122.41 101.281C1114.52 93.1456 1104.74 89.0779 1093.1 89.0779C1081.5 89.0779 1071.7 93.1456 1063.71 101.281C1055.72 109.32 1051.72 119.247 1051.72 131.062ZM1227.98 91.2869H1188.95V118.167H1226.6V134.034H1188.95V187.286H1172.05V75.4199H1227.98V91.2869ZM504.059 311.694H552.273V267.933H569.14V379.799H552.273V327.561H504.059V379.799H487.192V267.933H504.059V311.694ZM613.294 267.933V335.653C613.294 345.313 614.86 352.376 617.991 356.842C622.664 363.299 629.24 366.527 637.719 366.527C646.247 366.527 652.847 363.299 657.52 356.842C660.651 352.522 662.217 345.459 662.217 335.653V267.933H679.055V340.313C679.055 352.158 675.393 361.915 668.071 369.585C659.832 378.129 649.715 382.401 637.719 382.401C625.723 382.401 615.63 378.129 607.44 369.585C600.118 361.915 596.456 352.158 596.456 340.313V267.933H613.294ZM701.818 379.854L725.373 259.478L763.787 346.497L803.577 259.478L824.741 379.854H807.418L796.619 312.269L763.497 385.002L731.317 312.197L719.285 379.854H701.818ZM913.405 352.749H865.288L852.768 379.799H834.496L890.111 261.429L943.761 379.799H925.198L913.405 352.749ZM907.339 336.874L890.826 298.501L873.519 336.874H907.339ZM957.419 379.498V260.129L1039.33 345.403V267.73H1056.28V386.303L974.368 301.246V379.498H957.419ZM1099.85 267.933V379.799H1082.94V267.933H1099.85ZM1157.44 283.8V379.799H1140.55V283.8H1114.81V267.933H1183.1V283.8H1157.44ZM1228.21 331.474L1191.56 267.933H1211.05L1236.72 312.636L1262.47 267.933H1281.96L1245.16 331.474V379.799H1228.21V331.474Z" fill="white"/>
<path d="M367.312 308.666C371.189 315.446 370.605 321.945 363.643 331.678C362.008 333.965 361.586 336.016 361.968 339.133L362.005 339.42C362.13 340.345 362.275 341.143 362.583 342.567L363.3 345.808L363.528 346.876C363.999 349.142 364.247 350.724 364.387 352.539L364.422 353.027C364.668 356.782 364.251 360.334 362.991 363.87C360.259 371.537 353.762 378.457 342.649 385.362L341.774 385.901C336.369 389.188 330.611 391.637 324.366 393.433L323.395 393.708C316.455 395.641 311.014 396.447 299.417 397.591L295.254 397.997C282.847 399.245 277.62 400.472 273.441 403.455L273.275 403.575C268.277 407.248 265.554 414.146 265.439 426.834L265.434 428.044C265.325 439.325 260.154 448.056 250.397 453.248C241.535 457.963 229.072 459.692 212.887 458.754C182.075 456.969 136.536 445.375 75.979 424.003L68.7163 421.439L71.8073 414.385C88.0111 377.405 81.0697 333.701 50.2909 282.778L41.3681 267.988C32.4811 253.211 28.8975 247.019 24.5003 238.879L22.9772 236.042L22.1432 234.468C14.4435 219.852 9.11745 207.316 5.65441 195.109C-5.76476 154.857 3.22053 116.318 38.0851 62.8883C81.0256 -2.91779 159.795 -16.8513 272.512 20.0148C331.708 39.9648 361.586 86.4357 361.586 157.765V159.404L360.872 160.879C353.137 176.879 353.137 189.966 360.411 201.041C362.846 204.749 365.774 208.709 369.964 214.051L371.516 216.02L377.607 223.695C383.952 231.723 386.508 235.179 389.262 239.538L389.996 240.715L390.416 241.404C395.505 249.86 397.435 256.679 394.947 262.984C393.271 267.231 389.958 270.396 385.378 272.919C382.212 274.662 378.628 276.029 373.755 277.527L372.66 277.857C371.1 278.323 368.712 279.025 367.409 279.41L366.291 279.746L365.679 279.936C364.49 280.31 363.51 280.643 362.71 280.949L363.037 281.424C363.351 281.875 363.728 282.403 364.179 283.024L364.917 284.037L365.39 284.693C367.762 288.008 369.008 290.219 369.853 293.15C371.231 297.933 370.486 302.756 367.424 307.209L367.241 307.471C367.175 307.564 367.114 307.652 367.058 307.736L366.906 307.971L367.312 308.666ZM347.251 154.243C346.32 90.8368 320.061 51.1386 268.003 33.5941C160.843 -1.45447 88.8456 11.2811 50.0681 70.7076C17.2886 120.942 9.25817 155.385 19.4196 191.204C22.6377 202.547 27.7194 214.437 35.2146 228.579L36.6239 231.215C41.4604 240.2 45.0995 246.463 55.8411 264.287L62.5363 275.376C93.6545 326.861 102.26 372.864 87.7712 412.97C143.649 432.357 185.715 442.848 213.715 444.47L214.811 444.529C228.049 445.194 237.708 443.791 243.676 440.616C248.725 437.93 251.052 434.042 251.125 427.979L251.128 427.154C251.218 409.866 255.725 398.519 265.13 391.808C269.212 388.894 273.998 387.003 279.826 385.734L280.374 385.616C283.927 384.869 287.342 384.409 293.133 383.828L298.419 383.311C308.934 382.267 313.767 381.54 319.666 379.893L320.411 379.682C325.48 378.224 330.07 376.272 334.338 373.676L335.095 373.211C343.678 367.882 348.015 363.269 349.512 359.067C350.523 356.23 350.41 353.829 349.176 348.203L348.669 345.92L348.538 345.314C348.186 343.673 348.002 342.647 347.825 341.335L347.779 340.98C346.981 334.597 348.039 329.048 351.794 323.654L352.22 323.051C353.419 321.347 354.26 319.911 354.785 318.732C355.147 317.92 355.316 317.337 355.363 316.945L355.371 316.864C355.386 316.683 355.376 316.612 355.081 316.096L354.477 315.063L354.24 314.647C351.493 309.767 351.58 304.955 355.395 299.443L355.629 299.109L355.73 298.957C356.628 297.558 356.281 296.5 353.433 292.574L351.874 290.437L351.368 289.731C350.848 288.999 350.547 288.543 350.178 287.94L349.75 287.229C348.516 285.121 347.711 283.1 347.404 280.891C347.32 280.29 347.277 279.685 347.277 279.077C347.277 274.531 349.921 271.455 353.9 269.263C355.927 268.146 358.271 267.254 361.673 266.197L362.934 265.813C364.06 265.478 366.407 264.789 368.063 264.297L369.55 263.851L370.239 263.636C377.363 261.39 380.999 259.349 381.637 257.732C381.657 257.68 381.68 257.537 381.674 257.253C381.654 256.752 381.531 256.086 381.279 255.268C380.707 253.411 379.562 251.068 377.843 248.267L377.311 247.412C374.897 243.576 372.57 240.41 366.8 233.098L360.294 224.897L359.023 223.286L357.929 221.889C354.132 217.023 351.312 213.199 348.87 209.529L348.451 208.896C338.556 193.83 338.212 176.181 347.003 156.761L347.272 156.172L347.251 154.243Z" fill="white"/>
<path fill-rule="evenodd" clip-rule="evenodd" d="M54.0158 275.112L53.9605 275.021C7.72667 198.586 -16.1549 159.104 44.077 66.799C84.9359 4.18274 160.319 -9.15181 270.227 26.7954C326.364 45.7141 354.432 89.3711 354.432 157.766C345.668 175.892 345.668 191.627 354.432 204.97C358.529 211.209 363.802 217.828 368.981 224.33C380.418 238.687 391.402 252.477 388.292 260.359C385.846 266.56 376.122 269.403 367.719 271.86C360.602 273.941 354.432 275.746 354.432 279.078C354.432 281.84 356.448 284.587 358.564 287.471C362.016 292.174 365.734 297.24 361.409 303.329C358.381 307.591 359.548 309.575 360.866 311.815C362.586 314.738 364.562 318.097 357.824 327.517C353.289 333.859 354.612 339.751 355.979 345.836C358.199 355.721 360.534 366.118 338.056 379.789C324.55 388.004 310.055 389.391 297.175 390.623C275.425 392.704 258.282 394.344 258.282 427.68C258.282 463.065 198.308 459.591 78.3604 417.257C95.6117 377.887 88.2962 331.827 56.4139 279.078C55.6082 277.745 54.8087 276.423 54.0158 275.112ZM166.079 219.939C165.169 222.736 164.317 225.687 163.522 228.791C153.345 268.519 126.642 262.751 109.699 259.091C101.002 257.212 94.8756 255.889 94.8756 261.559C94.8756 278.276 86.4562 286.906 57.4532 246.372C38.1178 219.349 26.0095 195.858 21.1283 175.897C23.8043 123.735 44.5539 81.1498 83.377 48.1423C135.565 3.77201 227.124 34.9821 272.527 50.4589L272.528 50.4592C277.788 52.2522 282.429 53.8341 286.317 55.0628C311.282 62.9521 327.94 94.1332 336.291 148.606C336.385 155.147 330.155 164.244 317.601 175.897C306.02 186.647 278.245 190.197 234.277 186.547C223.949 207.046 202.713 221.107 178.193 221.107C174.049 221.107 169.998 220.705 166.079 219.939ZM227.952 185.982C226.276 185.823 224.579 185.654 222.859 185.475C197.407 175.741 179.137 185.367 168.049 214.352C171.341 214.944 174.731 215.253 178.193 215.253C199.593 215.253 218.233 203.442 227.952 185.982ZM74.2328 161.493C65.4425 148.515 58.0335 150.521 49.8235 168.545L48.6951 171.022L45.2601 166.499L45.6627 165.615C55.4366 144.158 67.0392 141.325 78.2163 158.158L78.4893 158.565C87.5018 171.858 96.5628 171.316 107.319 156.672L108.936 154.47L111.462 159.834L110.89 160.614C98.1785 177.92 85.4825 178.432 74.4996 161.891L74.2328 161.493ZM73.8885 106.106C82.0985 88.0823 89.5075 86.0763 98.2978 99.0546L98.5646 99.4525C109.547 115.993 122.244 115.481 134.955 98.1754L135.527 97.3955L133.001 92.0312L131.384 94.2333C120.628 108.877 111.567 109.419 102.554 96.1264L102.281 95.7194C91.1042 78.8863 79.5016 81.7189 69.7277 103.176L69.3251 104.06L72.7601 108.584L73.8885 106.106ZM119.413 61.2307L118.285 63.7079L114.85 59.1843L115.586 57.5762C125.29 36.7815 136.756 34.202 147.806 50.8438L148.202 51.431C157.174 64.5382 166.201 63.9353 176.908 49.3577L178.526 47.1557L181.052 52.5199L180.008 53.933C167.455 70.6154 154.937 70.9135 144.089 54.5769L143.738 54.0553C135.458 41.9082 128.4 43.086 120.734 58.4551L120.066 59.8273L119.413 61.2307ZM201.361 84.6467C209.571 66.6227 216.98 64.6167 225.77 77.595L226.037 77.9929C237.02 94.5337 249.716 94.0213 262.427 76.7158L263 75.9359L260.474 70.5716L258.856 72.7737C248.1 87.4177 239.039 87.9594 230.027 74.6668L229.754 74.2598C218.577 57.4267 206.974 60.2593 197.2 81.7164L196.797 82.6003L200.232 87.1239L201.361 84.6467ZM90.8352 222.657C82.045 209.679 74.636 211.685 66.4259 229.709L65.2975 232.186L61.8626 227.663L62.2652 226.779C72.0391 205.322 83.6417 202.489 94.8187 219.322L95.0918 219.729C104.104 233.022 113.165 232.48 123.921 217.836L125.539 215.634L128.065 220.998L127.492 221.778C114.781 239.084 102.085 239.596 91.102 223.055L90.8352 222.657ZM244.438 133.678C252.648 115.654 260.057 113.648 268.847 126.626L269.114 127.024C280.097 143.565 292.793 143.052 305.504 125.747L306.077 124.967L303.55 119.603L301.933 121.805C291.177 136.449 282.116 136.991 273.103 123.698L272.83 123.291C261.653 106.458 250.051 109.29 240.277 130.748L239.874 131.631L243.309 136.155L244.438 133.678Z" fill="white"/>
<path fill-rule="evenodd" clip-rule="evenodd" d="M235.1 158.347C235.1 189.776 209.621 215.255 178.191 215.255C146.762 215.255 121.283 189.776 121.283 158.347C121.283 126.917 146.762 101.438 178.191 101.438C209.621 101.438 235.1 126.917 235.1 158.347ZM178.2 171.478L198.031 159.071L178.2 124.2L158.357 159.071L178.2 171.478ZM158.357 163.223L178.194 175.491L198.031 163.223L178.194 192.491L158.357 163.223Z" fill="white"/>
</svg>
