<?xml version="1.0" encoding="UTF-8"?>
<svg width="1200pt" height="1200pt" version="1.1" viewBox="0 0 1200 1200" xmlns="http://www.w3.org/2000/svg">
 <path d="m1028 800.28-155.16-77.641c-2.9805-1.4453-4.8516-4.4883-4.8008-7.8008v-42.84l5.3984-7.4414h0.003907c19.773-28 35.906-58.402 48-90.48 27.555-18.332 44.125-49.223 44.16-82.316v-65.402c-0.019531-19.34-5.7383-38.25-16.441-54.359v-34.32c3.6445-47.422-11.625-94.363-42.48-130.56-40.078-45.84-102.72-69-186.72-69-41.055-0.92578-81.875 6.4609-120 21.719-38.117-15.293-78.941-22.68-120-21.719-84 0-146.64 23.281-186.72 69-30.645 36.078-45.898 82.746-42.48 129.96v34.922c-10.574 16.07-16.207 34.883-16.199 54.121v65.039c-0.058593 25.793 10.027 50.574 28.078 69 11.543 39.469 29.504 76.766 53.16 110.4v42.602c-0.003906 3.1992-1.75 6.1445-4.5586 7.6797l-145.08 79.199c-28.52 15.555-52.324 38.508-68.898 66.445-16.578 27.938-25.316 59.828-25.301 92.316v67.078c0 9.5508 3.793 18.707 10.543 25.457 6.7539 6.75 15.91 10.543 25.457 10.543h984c9.5469 0 18.703-3.793 25.457-10.543 6.75-6.75 10.543-15.906 10.543-25.457v-63.84c0.10156-33.605-9.2109-66.566-26.875-95.156-17.668-28.586-42.984-51.66-73.086-66.602zm27.961 189.6h-168v-27.84c0.10156-33.605-9.2109-66.566-26.875-95.156-17.668-28.586-42.984-51.66-73.086-66.602l-155.16-77.641c-2.9805-1.4453-4.8516-4.4883-4.8008-7.8008v-42.84l5.3984-7.4414h0.003907c19.773-28 35.906-58.402 48-90.48 27.555-18.332 44.125-49.223 44.16-82.316v-65.402c-0.019531-19.34-5.7383-38.25-16.441-54.359v-34.32c3.3711-44.535-9.8828-88.742-37.199-124.08 15.879-2.4727 31.93-3.6758 48-3.6016 62.16 0 106.68 15 132.6 44.52 18.043 21.582 26.953 49.352 24.84 77.402-0.070312 1.3164-0.070312 2.6406 0 3.957v48c0.019532 8.8672 3.3086 17.41 9.2383 24 4.5156 4.8672 7.0391 11.246 7.082 17.883v65.039c-0.089844 5.1211-1.6523 10.113-4.5078 14.367-2.8516 4.2578-6.8711 7.6016-11.574 9.6328-9.1523 4.0664-16.195 11.762-19.441 21.238-10.277 30.371-24.863 59.102-43.316 85.32-3.4805 5.0391-7.0781 9.7188-10.441 13.68-5.3398 6.4453-8.2695 14.551-8.2812 22.922v55.559c-0.011719 14.969 4.1641 29.645 12.051 42.367 7.8867 12.723 19.176 22.988 32.59 29.633l155.16 79.199c18.105 8.9844 33.328 22.867 43.934 40.07 10.605 17.203 16.172 37.039 16.066 57.25z" fill="#fff"/>
</svg>
