<?xml version="1.0" encoding="UTF-8"?>
<svg width="1200pt" height="1200pt" version="1.1" viewBox="0 0 1200 1200" xmlns="http://www.w3.org/2000/svg">
 <path d="m1116 982.8-193.2-193.2c-28.801-28.801-74.398-32.398-106.8-8.3984l-38.398-37.203c64.801-73.199 104.4-168 104.4-273.6 0-225.6-184.8-410.4-410.4-410.4-226.8 0-411.6 184.8-411.6 411.6 0 226.8 184.8 411.6 411.6 411.6 104.4 0 200.4-39.602 273.6-104.4l37.199 37.199c-24 32.398-20.398 78 8.3984 106.8l192 193.2c15.602 16.801 37.199 24 58.801 24 21.602 0 42-8.3984 58.801-24l14.398-14.398c33.598-33.602 33.598-86.402 1.1992-118.8zm-644.4-195.6c-174 0-315.6-141.6-315.6-315.6s141.6-315.6 315.6-315.6 315.6 141.6 315.6 315.6c-0.003906 174-141.6 315.6-315.6 315.6z" fill="#fff"/>
</svg>
