<?xml version="1.0" encoding="UTF-8"?>
<svg width="1200pt" height="1200pt" version="1.1" viewBox="0 0 1200 1200" xmlns="http://www.w3.org/2000/svg">
 <g fill="#fff">
  <path d="m600 236.13c28.828 0 56.473-11.449 76.855-31.836 20.383-20.383 31.836-48.027 31.836-76.855 0-28.824-11.449-56.469-31.832-76.855-20.383-20.383-48.031-31.832-76.855-31.832-28.828-0.003906-56.473 11.449-76.855 31.832-20.387 20.383-31.836 48.031-31.836 76.855 0.03125 28.816 11.496 56.441 31.871 76.82 20.375 20.375 48 31.836 76.816 31.871zm0-189.02c21.305 0 41.742 8.4609 56.805 23.527 15.066 15.066 23.531 35.5 23.531 56.809 0 21.305-8.4648 41.738-23.531 56.805-15.066 15.066-35.5 23.531-56.805 23.531-21.309 0-41.742-8.4648-56.809-23.531s-23.527-35.5-23.527-56.809c0.027344-21.297 8.5-41.715 23.559-56.773 15.062-15.062 35.48-23.535 56.777-23.559z"/>
  <path d="m1015.9 472.41h-4.7266v-99.234c-0.003906-7.832-6.3477-14.176-14.18-14.18h-196.86l-6.8164-27.289c-3.4023-13.891-10.953-26.414-21.645-35.906-10.695-9.4961-24.023-15.512-38.219-17.25l-89.289-11.305h0.003906c-2.3203-0.29688-4.6758-0.011719-6.8594 0.83203l-37.27 14.301-37.27-14.305c-2.1797-0.85547-4.5391-1.1406-6.8594-0.83203l-89.289 11.305h0.003907c-14.195 1.7383-27.523 7.7539-38.219 17.25-10.691 9.4922-18.242 22.016-21.645 35.906l-6.8164 27.289h-196.86c-7.832 0.003907-14.176 6.3477-14.18 14.18v99.238h-4.7266c-18.496 0.10938-35.539 10.043-44.758 26.078-9.2148 16.039-9.2148 35.766 0 51.801 9.2188 16.039 26.262 25.973 44.758 26.082h4.7266v212.66c0.003906 7.8281 6.3477 14.176 14.18 14.18h269.36v307.17c-0.058594 20.004 8.3633 39.094 23.176 52.539 14.812 13.441 34.629 19.977 54.531 17.984 19.906-1.9922 38.031-12.324 49.887-28.438 11.855 16.113 29.98 26.445 49.887 28.438 19.902 1.9922 39.719-4.543 54.531-17.984 14.812-13.445 23.234-32.535 23.176-52.539v-307.17h269.36c7.832-0.003906 14.176-6.3516 14.18-14.18v-212.65h4.7266c18.496-0.10938 35.539-10.043 44.758-26.082 9.2148-16.035 9.2148-35.762 0-51.801-9.2188-16.039-26.262-25.969-44.758-26.082zm-33.082 89.785v100.08c-28.738 3.25-55.523 16.156-75.973 36.605-20.453 20.453-33.359 47.234-36.613 75.973h-540.38c-3.2539-28.738-16.16-55.52-36.609-75.969-20.449-20.449-47.234-33.355-75.969-36.609v-162.34c28.734-3.2539 55.52-16.16 75.969-36.609 20.449-20.449 33.355-47.234 36.609-75.969h540.38c3.2539 28.734 16.16 55.52 36.609 75.969 20.449 20.449 47.234 33.355 75.969 36.609zm0-174.85v84.059c-21.191-3.0977-40.816-12.949-55.961-28.094-15.145-15.145-24.996-34.77-28.094-55.961zm-548.55-48.773c2.043-8.3359 6.5742-15.848 12.992-21.543 6.4141-5.6953 14.41-9.3047 22.93-10.348l85.754-10.863 39.023 14.98c3.2656 1.2539 6.8828 1.2539 10.148 0l39.023-14.98 85.754 10.863c8.5195 1.043 16.516 4.6523 22.93 10.348 6.418 5.6953 10.949 13.207 12.992 21.543l5.0938 20.426-341.73-0.003906zm-217 48.777h84.055c-3.0977 21.191-12.949 40.816-28.094 55.961-15.145 15.145-34.77 24.996-55.961 28.094zm-33.082 160.67c-8.4375 0-16.238-4.5-20.457-11.812-4.2227-7.3086-4.2227-16.312 0-23.625 4.2188-7.3086 12.02-11.812 20.457-11.812h4.7266v47.25zm33.082 226.83v-84.051c21.191 3.0977 40.816 12.949 55.961 28.094s24.996 34.77 28.094 55.961zm326.06 378.05v0.003906c-11.273-0.011719-22.082-4.4961-30.055-12.469-7.9727-7.9688-12.457-18.777-12.473-30.051v-307.17h85.062v307.17c-0.015625 11.273-4.5039 22.082-12.477 30.055-7.9727 7.9688-18.781 12.453-30.055 12.465zm155.95-42.516c0 15.195-8.1055 29.234-21.266 36.832-13.16 7.5977-29.371 7.5977-42.531 0-13.16-7.5977-21.266-21.637-21.266-36.832v-307.17h85.062zm283.54-335.53h-84.055c3.0977-21.191 12.949-40.816 28.094-55.961s34.77-24.996 55.961-28.094zm33.082-226.83h-4.7266v-47.25h4.7266v-0.003906c8.4375 0 16.238 4.5039 20.457 11.812 4.2227 7.3125 4.2227 16.316 0 23.625-4.2188 7.3125-12.02 11.812-20.457 11.812z"/>
 </g>
</svg>
