<?xml version="1.0" encoding="UTF-8"?>
<svg width="1200pt" height="1200pt" version="1.1" viewBox="0 0 1200 1200" xmlns="http://www.w3.org/2000/svg">
 <g fill="#fff">
  <path d="m716.46 816.23-246.55-54.266-9.5742-59.461c23.895-14.801 43.621-35.457 57.312-60.008 13.688-24.551 20.891-52.188 20.922-80.297v-4.7266h14.184c16.426 0.03125 32.176-6.5312 43.723-18.215s17.922-27.508 17.699-43.934c-0.22656-16.426-7.0312-32.074-18.891-43.438v-116.52c-0.0625-53.875-21.492-105.52-59.59-143.62-38.094-38.098-89.742-59.523-143.62-59.586h-37.805c-53.875 0.0625-105.52 21.492-143.62 59.586s-59.523 89.742-59.586 143.62v116.52-0.003907c-11.859 11.363-18.664 27.012-18.891 43.438-0.22266 16.426 6.1523 32.25 17.699 43.934s27.297 18.246 43.723 18.215h14.176v4.7266c0.035156 28.109 7.2344 55.746 20.926 80.297 13.688 24.551 33.414 45.207 57.312 60.008l-9.5742 59.461-246.55 54.266c-6.5 1.4297-11.129 7.1836-11.133 13.836v337.01c0.003906 7.8281 6.3477 14.172 14.176 14.176h680.49c7.8281-0.003906 14.176-6.3477 14.18-14.176v-337.01c-0.007812-6.6523-4.6367-12.406-11.133-13.836zm-432.84-26.812 67.23 66.582-55.934 37.289-44.07-96.656zm179.09 0 32.773 7.2148-44.074 96.656-55.934-37.289zm90.031-260.29h-14.176v-66.168h14.176c11.816 0 22.738 6.3047 28.648 16.539 5.9062 10.234 5.9062 22.844 0 33.082-5.9102 10.234-16.832 16.539-28.648 16.539zm-373.33-193.76c0.050781-46.359 18.488-90.801 51.266-123.58 32.781-32.781 77.223-51.219 123.58-51.27h37.805c46.355 0.050781 90.801 18.488 123.58 51.27 32.781 32.777 51.219 77.219 51.27 123.58v101.05c-4.6406-1.1602-9.3984-1.7695-14.176-1.8125h-14.176l-0.003906-61.434c0-7.832-6.3477-14.176-14.176-14.18-13.547 0.011718-26.75-4.25-37.734-12.176-10.988-7.9258-19.195-19.109-23.457-31.969l-0.98047-2.9062c-1.3711-4.0664-4.5117-7.293-8.5391-8.7734-4.0273-1.4844-8.5078-1.0625-12.191 1.1406-59.641 35.777-127.89 54.68-197.44 54.684h-22.098c-7.832 0.003906-14.176 6.3477-14.18 14.18v61.434h-14.176c-4.7812 0.042969-9.5391 0.65234-14.176 1.8125zm14.176 193.76c-11.816 0-22.738-6.3047-28.648-16.539-5.9062-10.234-5.9062-22.844 0-33.078 5.9102-10.234 16.832-16.539 28.648-16.539h14.176v66.156zm42.531 33.078v-174.86h7.918c69.094 0 137.08-17.371 197.7-50.516 13.559 26.52 39.027 44.91 68.465 49.434v175.93c0.13672 36.434-14.242 71.422-39.957 97.23-25.715 25.812-60.652 40.32-97.086 40.32s-71.367-14.508-97.082-40.32c-25.715-25.809-40.094-60.797-39.961-97.23zm137.04 165.4c20.758-0.023437 41.324-3.9805 60.609-11.66l8.5352 53.062-69.148 69.156-69.148-69.156 8.5352-53.062h0.003906c19.285 7.6797 39.852 11.629 60.613 11.652zm326.06 425.3h-85.059v-174.86h-28.352v174.85h-425.3v-174.85h-28.355v174.85h-85.059v-311.43l175.42-38.609 53.496 117.34v0.003907c1.7266 3.7812 5.0273 6.6133 9.0273 7.75 3.9922 1.1562 8.2891 0.48438 11.738-1.8359l76.383-50.918 76.387 50.918c2.3281 1.5547 5.0664 2.3828 7.8633 2.3828 1.3125 0 2.6172-0.18359 3.8789-0.54688 4-1.1367 7.2969-3.9688 9.0273-7.75l53.496-117.34 175.42 38.609z"/>
  <path d="m1129.3 18.75h-415.85c-13.781 0.015625-26.996 5.4961-36.742 15.242-9.7461 9.7422-15.227 22.957-15.238 36.742v264.63c0.011718 13.781 5.4922 26.996 15.238 36.738 9.7461 9.7461 22.961 15.227 36.742 15.242h42.531v80.336c0 5.4336 3.1055 10.391 7.9961 12.758 4.8906 2.3711 10.703 1.7344 14.969-1.6367l115.61-91.457h234.75c13.781-0.015625 26.996-5.4961 36.742-15.242 9.7422-9.7422 15.223-22.957 15.238-36.738v-264.63c-0.015625-13.785-5.4961-27-15.242-36.742-9.7422-9.7461-22.957-15.227-36.742-15.242zm23.625 316.62c-0.003906 6.2617-2.4961 12.27-6.9258 16.699-4.4297 4.4258-10.434 6.918-16.699 6.9258h-239.67c-3.1914 0-6.2891 1.0742-8.7891 3.0547l-96.504 76.34v-65.215c-0.003906-7.832-6.3477-14.176-14.18-14.18h-56.707c-6.2617-0.003907-12.27-2.4961-16.699-6.9258-4.4258-4.4297-6.918-10.434-6.9258-16.699v-264.63c0.007813-6.2656 2.5-12.27 6.9258-16.699 4.4297-4.4297 10.438-6.9219 16.699-6.9258h415.85c6.2656 0.003906 12.27 2.4961 16.699 6.9258 4.4297 4.4297 6.9219 10.434 6.9258 16.699z"/>
  <path d="m931.36 193.03c4.0586 4.0508 5.2695 10.152 3.0742 15.449-2.1914 5.2969-7.3633 8.75-13.098 8.75s-10.902-3.4531-13.098-8.75c-2.1914-5.2969-0.98047-11.398 3.0742-15.449 2.7148-2.5508 6.3008-3.9688 10.023-3.9688 3.7266 0 7.3086 1.418 10.023 3.9688z"/>
  <path d="m1028.9 197.57c0.73828 1.7344 1.1289 3.5977 1.1445 5.4844 0.003906 1.8867-0.38672 3.7539-1.1445 5.4805-0.71484 1.6836-1.7305 3.2188-3 4.5312-1.2656 1.3398-2.8164 2.375-4.5391 3.0273-1.7344 0.73828-3.5977 1.1211-5.4844 1.1367-1.8867 0.007813-3.7539-0.37891-5.4805-1.1367-1.7266-0.65234-3.2773-1.6875-4.543-3.0273-1.2852-1.3047-2.3125-2.8438-3.0273-4.5312-1.5-3.5-1.5-7.4648 0-10.965 0.71484-1.6914 1.7422-3.2305 3.0273-4.5391 1.2617-1.3438 2.8164-2.375 4.543-3.0195 3.4961-1.5156 7.4648-1.5156 10.965 0 1.7227 0.64453 3.2773 1.6758 4.5391 3.0195 1.2695 1.3125 2.2891 2.8555 3 4.5391z"/>
  <path d="m836.85 193.03c2.6562 2.6562 4.1523 6.2617 4.1562 10.023-0.042968 3.7461-1.5312 7.3359-4.1562 10.012-2.6562 2.6641-6.2617 4.1641-10.023 4.1641s-7.3672-1.5-10.023-4.1641c-1.3438-1.2578-2.3789-2.8086-3.0273-4.5312-2.2539-5.3008-1.0547-11.441 3.0273-15.504 2.7148-2.5508 6.3008-3.9688 10.023-3.9688 3.7266 0 7.3086 1.418 10.023 3.9688z"/>
 </g>
</svg>
