<?xml version="1.0" encoding="UTF-8"?>
<svg width="1200pt" height="1200pt" version="1.1" viewBox="0 0 1200 1200" xmlns="http://www.w3.org/2000/svg">
 <path d="m510.5 406.67c-2.1055 0.97266-3.9805 2.4336-5.4336 4.2344-18.109 22.555-27.434 54.566-34.242 88.484-6.4453 32.105-10.129 65.719-13.699 94.605l-118.32 148.5c-4.6953 5.9062-3.9297 15.391 1.6523 20.473l119.97 109.2-124.93-0.33203v30.121l453.43 0.33203v-30.121h-211.36l169.8-193.45c4.9297-5.6797 4.6016-15.148-0.70703-20.473l-45.578-45.422c8.1289-7.3594 15.867-14.609 22.672-22.355 19.758-22.5 32.242-49.766 34.242-85.426l98.48-47.633c4.8516-2.5664 8.0703-7.9414 8.0312-13.414v-129.43c-0.09375-7.4297-6.5-14.246-13.934-14.828-129.65-15.297-243.01 60.012-340.07 106.94zm323.78-77.051v105.43l-97.77 47.398c-4.7812 2.5273-7.9844 7.7852-8.0312 13.18 0 34.633-9.2227 54.141-27.395 74.836-28.219 29.055-57.547 51.379-81.477 72.719-11.258 10.555-28.574 24.852-37.312 16.238-3.5664-6.3945 5.7852-16.453 9.918-21.887 11.211-14.609 30.172-33.727 49.594-56.949 4.7383-5.707 4.3047-14.996-0.94531-20.238l-75.57-75.309c-6.0352-5.8945-17.191-5.1914-22.434 1.4102l-48.414 60.719c1.9727-14.309 3.3867-28.168 6.1406-41.891 6.1797-30.789 15.43-57.715 26.922-73.188 110.29-49.75 192.24-105.73 306.77-102.47zm-278.2 188.84 53.371 53.188c-15.012 17.055-30.387 33.277-41.328 47.539-14.469 17.988-21.324 42.559-8.9727 60.48 26.383 22.055 58.574 6.6367 81.238-14.59 12.742-11.375 26.555-22.641 38.023-32.242l36.84 36.711-177.83 202.62h-32.117l-134.14-122.14c61.879-77.418 123.58-153.98 184.91-231.57z" fill="#fff"/>
</svg>
